<?xml version="1.0" encoding="UTF-8"?>
<svg xmlns="http://www.w3.org/2000/svg" xmlns:xlink="http://www.w3.org/1999/xlink" width="566.93pt" height="529.8pt" viewBox="0 0 566.93 529.8" version="1.1">
<defs>
<clipPath id="clip1">
  <path d="M 0 0 L 566.929688 0 L 566.929688 529.800781 L 0 529.800781 Z M 0 0 "/>
</clipPath>
</defs>
<g id="surface1">
<g clip-path="url(#clip1)" clip-rule="nonzero">
<path style=" stroke:none;fill-rule:evenodd;fill:rgb(70.199585%,18.399048%,21.199036%);fill-opacity:1;" d="M 537.597656 205.378906 L 535.824219 204.980469 L 486.597656 204.980469 L 531.136719 0 L 438.96875 0 L 399.230469 204.75 L 397.457031 204.980469 L 388.195313 204.980469 C 386.878906 204.980469 386.195313 204.691406 386.195313 204.179688 L 385.792969 203.378906 L 385.050781 203.378906 L 382.648438 204.351563 L 379.730469 204.980469 L 371.441406 204.980469 L 327.53125 0 L 252.113281 0 L 246.625 26.1875 L 246.625 106.519531 C 246.625 114.011719 246.339844 116.699219 245.824219 114.582031 L 242.910156 120.871094 L 243.082031 153.40625 L 243.082031 204.980469 L 238.335938 204.980469 L 238.335938 107.320313 C 238.335938 105.492188 238.792969 104.117188 239.707031 103.148438 L 242.109375 100.230469 C 240.105469 89.597656 238.734375 78.390625 237.933594 66.554688 L 208.601563 202.976563 L 207.230469 202.578125 L 165.492188 202.578125 L 133.015625 34.878906 L 40.902344 34.878906 L 77.097656 202.578125 L 37.757813 202.804688 C 37.242188 202.804688 36.84375 206.695313 36.558594 214.414063 L 36.328125 226.820313 L 44.21875 240.429688 C 44.621094 240.65625 45.363281 239.226563 46.5625 236.082031 L 48.164063 231.738281 L 51.136719 287.257813 C 50.222656 301.148438 49.363281 308.125 48.566406 308.125 L 36.957031 253.007813 L 34.386719 255.179688 L 31.640625 257.753906 C 26.894531 295.433594 24.207031 314.128906 23.578125 313.84375 L 13.914063 303.035156 L 9.167969 302.636719 L 4.824219 303.207031 C 1.050781 316.300781 -0.492188 322.878906 0.136719 322.878906 L 46.792969 322.878906 C 47.992188 322.878906 48.507813 322.363281 48.335938 321.335938 L 48.566406 319.5625 L 49.765625 318.359375 L 50.910156 318.761719 L 51.136719 319.730469 C 50.964844 320.820313 51.59375 321.335938 52.910156 321.335938 L 61.371094 321.335938 C 62.6875 321.335938 63.203125 320.933594 62.917969 320.132813 L 62.917969 318.933594 L 63.316406 318.359375 C 63.832031 318.359375 64.117188 318.875 64.117188 319.960938 L 64.117188 324.480469 C 64.117188 325.679688 64.746094 326.25 66.0625 326.25 L 104.082031 326.25 L 148.167969 529.800781 L 229.128906 529.800781 L 239.535156 476.28125 L 239.535156 401.039063 L 240.335938 385.484375 L 241.136719 371.136719 C 241.25 380.855469 242.335938 407.441406 244.453125 450.894531 L 268.867188 326.25 L 310.035156 326.25 L 342.683594 494.980469 L 423.816406 494.980469 L 460.464844 326.25 L 500.203125 326.25 L 502.203125 326.023438 L 522.445313 325.851563 C 523.761719 326.136719 524.445313 325.679688 524.445313 324.480469 L 524.445313 304.808594 L 515.355469 288.058594 L 514.785156 293.546875 L 511.238281 296.917969 L 517.527344 274.277344 L 512.609375 265.8125 L 508.265625 270.902344 L 503.179688 255.980469 L 505.351563 249.460938 L 508.09375 248.488281 L 508.09375 241.398438 L 515.585938 241.171875 L 528.964844 270.902344 L 535.082031 276.851563 L 533.480469 259.523438 L 537.597656 262.269531 L 540 215.386719 C 540.113281 214.984375 542.457031 216.585938 547.089844 220.128906 L 553.949219 225.449219 L 566.929688 205.722656 L 539.199219 205.722656 L 537.597656 205.378906 "/>
</g>
<path style=" stroke:none;fill-rule:evenodd;fill:rgb(100%,100%,100%);fill-opacity:1;" d="M 106.257813 214.585938 L 119.0625 214.585938 L 129.699219 278.222656 L 130.042969 278.222656 L 138.734375 214.585938 L 153.3125 214.585938 L 137.359375 314.414063 L 124.152344 314.414063 L 112.71875 248.488281 L 112.546875 248.488281 L 101.910156 314.414063 L 88.929688 314.414063 L 71.605469 214.585938 L 86.1875 214.585938 L 95.792969 278.222656 L 96.195313 278.222656 L 106.257813 214.585938 "/>
<path style=" stroke:none;fill-rule:nonzero;fill:rgb(100%,100%,100%);fill-opacity:1;" d="M 165.320313 314.414063 L 180.871094 314.414063 L 180.871094 214.585938 L 165.320313 214.585938 L 165.320313 314.414063 "/>
<path style=" stroke:none;fill-rule:evenodd;fill:rgb(100%,100%,100%);fill-opacity:1;" d="M 212.148438 252.035156 L 212.148438 314.414063 L 198.195313 314.414063 L 198.195313 214.585938 L 212.777344 214.585938 L 231.644531 271.703125 L 232.046875 271.703125 L 232.046875 214.585938 L 246.054688 214.585938 L 246.054688 314.414063 L 232.445313 314.414063 L 212.546875 252.035156 L 212.148438 252.035156 "/>
<path style=" stroke:none;fill-rule:evenodd;fill:rgb(100%,100%,100%);fill-opacity:1;" d="M 272.8125 292.402344 L 270.238281 314.414063 L 255.085938 314.414063 L 271.839844 214.585938 L 291.339844 214.585938 L 307.859375 314.414063 L 292.882813 314.414063 L 289.964844 292.402344 Z M 275.15625 277.421875 L 287.792969 277.421875 L 281.675781 234.480469 L 281.273438 234.480469 L 275.15625 277.421875 "/>
<path style=" stroke:none;fill-rule:evenodd;fill:rgb(100%,100%,100%);fill-opacity:1;" d="M 359.035156 214.585938 L 379.503906 214.585938 L 379.503906 314.414063 L 365.953125 314.414063 L 365.953125 236.484375 L 365.726563 236.484375 L 351.546875 314.414063 L 344.054688 314.414063 L 329.933594 236.484375 L 329.703125 236.484375 L 329.703125 314.414063 L 316.09375 314.414063 L 316.09375 214.585938 L 336.621094 214.585938 L 347.601563 272.902344 L 348 272.902344 L 359.035156 214.585938 "/>
<path style=" stroke:none;fill-rule:evenodd;fill:rgb(100%,100%,100%);fill-opacity:1;" d="M 405.691406 292.402344 L 402.945313 314.414063 L 387.796875 314.414063 L 404.546875 214.585938 L 423.988281 214.585938 L 440.738281 314.414063 L 425.589844 314.414063 L 422.84375 292.402344 Z M 407.863281 277.421875 L 420.441406 277.421875 L 414.382813 234.480469 L 414.152344 234.480469 L 407.863281 277.421875 "/>
<path style=" stroke:none;fill-rule:evenodd;fill:rgb(100%,100%,100%);fill-opacity:1;" d="M 470.070313 278.222656 L 459.265625 314.414063 L 443.886719 314.414063 L 461.839844 262.039063 L 445.257813 214.585938 L 460.464844 214.585938 L 470.070313 246.316406 L 470.300781 246.316406 L 478.933594 214.585938 L 494.316406 214.585938 L 478.761719 262.039063 L 496.261719 314.414063 L 480.9375 314.414063 L 470.300781 278.222656 L 470.070313 278.222656 "/>
</g>
</svg>
